<svg width="18" height="17" viewBox="0 0 18 17" fill="none" xmlns="http://www.w3.org/2000/svg">
<path d="M18 3.77778V3.06944C18 1.377 16.542 0 14.75 0H3.25C1.458 0 0 1.377 0 3.06944V3.77778H18ZM0 5.19444V13.9306C0 15.623 1.458 17 3.25 17H14.75C16.542 17 18 15.623 18 13.9306V5.19444H0ZM4.75 14.1667C4.0595 14.1667 3.5 13.6382 3.5 12.9861C3.5 12.334 4.0595 11.8056 4.75 11.8056C5.4405 11.8056 6 12.334 6 12.9861C6 13.6382 5.4405 14.1667 4.75 14.1667ZM4.75 9.91667C4.0595 9.91667 3.5 9.38825 3.5 8.73611C3.5 8.08397 4.0595 7.55556 4.75 7.55556C5.4405 7.55556 6 8.08397 6 8.73611C6 9.38825 5.4405 9.91667 4.75 9.91667ZM9 14.1667C8.3095 14.1667 7.75 13.6382 7.75 12.9861C7.75 12.334 8.3095 11.8056 9 11.8056C9.6905 11.8056 10.25 12.334 10.25 12.9861C10.25 13.6382 9.6905 14.1667 9 14.1667ZM9 9.91667C8.3095 9.91667 7.75 9.38825 7.75 8.73611C7.75 8.08397 8.3095 7.55556 9 7.55556C9.6905 7.55556 10.25 8.08397 10.25 8.73611C10.25 9.38825 9.6905 9.91667 9 9.91667ZM13.25 9.91667C12.5595 9.91667 12 9.38825 12 8.73611C12 8.08397 12.5595 7.55556 13.25 7.55556C13.9405 7.55556 14.5 8.08397 14.5 8.73611C14.5 9.38825 13.9405 9.91667 13.25 9.91667Z" fill="#637394"/>
</svg>
