<svg width="19" height="20" viewBox="0 0 19 20" fill="none" xmlns="http://www.w3.org/2000/svg">
<path d="M6.36258 18.4174V15.4961C6.36258 14.7504 6.97383 14.1459 7.72783 14.1459H10.4841C10.8462 14.1459 11.1934 14.2882 11.4495 14.5414C11.7055 14.7946 11.8493 15.138 11.8493 15.4961V18.4174C11.8471 18.7274 11.97 19.0255 12.1908 19.2455C12.4117 19.4655 12.7122 19.5893 13.0257 19.5893H14.9061C15.7844 19.5915 16.6274 19.248 17.2492 18.6347C17.871 18.0213 18.2205 17.1884 18.2205 16.3199V7.99778C18.2205 7.29616 17.906 6.63064 17.3619 6.18051L10.9649 1.12781C9.85218 0.241903 8.25784 0.270507 7.1783 1.19575L0.92734 6.18051C0.357449 6.61737 0.0168322 7.28487 0 7.99778V16.3114C0 18.1217 1.4839 19.5893 3.31438 19.5893H5.15189C5.80297 19.5893 6.3321 19.0698 6.33682 18.4259L6.36258 18.4174Z" fill="white"/>
</svg>
