<svg width="41" height="48" viewBox="0 0 41 48" fill="none" xmlns="http://www.w3.org/2000/svg">
<path d="M30.479 48H33.5592C33.7999 48 34.0042 47.8358 34.0562 47.6008C34.2897 46.5461 39.7819 21.6792 40.595 13.9449C40.6728 13.2052 40.4179 12.4669 39.8771 11.8663C39.1534 11.0626 38.0119 10.5826 36.824 10.5826C36.1294 10.5826 35.4553 10.7514 34.8691 11.0647L32.9845 26.9211C33.4223 27.6664 33.6525 28.463 33.6525 29.2913C33.6525 30.4734 33.1887 31.5919 32.3112 32.5867L30.479 48Z" fill="#637394"/>
<path d="M23.7646 10.5826C23.0884 10.5826 22.4324 10.7441 21.8574 11.0416V22.0415C22.9141 22.0991 23.9435 22.2238 24.9278 22.411L25.6413 11.0269C25.0732 10.7391 24.4289 10.5826 23.7646 10.5826Z" fill="#637394"/>
<path d="M19.1426 11.0414C18.5676 10.7439 17.9116 10.5825 17.2354 10.5825C16.571 10.5825 15.9266 10.7391 15.3589 11.0266L16.0724 22.4107C17.0567 22.2235 18.086 22.0988 19.1428 22.0412V11.0414H19.1426Z" fill="#637394"/>
<path d="M10.0635 29.2913C10.0635 31.4497 14.5268 33.8639 20.5002 33.8639C26.4736 33.8639 30.9372 31.4497 30.9372 29.2913C30.9372 27.1329 26.4738 24.7187 20.5002 24.7187C14.527 24.7187 10.0635 27.1328 10.0635 29.2913Z" fill="#637394"/>
<path d="M32.1407 11.012C31.5801 10.7341 30.947 10.5826 30.2941 10.5826C29.6076 10.5826 28.9414 10.7483 28.3599 11.0547L27.604 23.1146C28.2569 23.3399 28.8754 23.5967 29.4497 23.8856C29.8383 24.0809 30.1989 24.2891 30.5367 24.5065L32.1407 11.012Z" fill="#637394"/>
<path d="M6.1312 11.0647C5.54502 10.7514 4.87092 10.5826 4.17629 10.5826C2.98825 10.5826 1.84676 11.0625 1.1232 11.8663C0.582435 12.4669 0.327566 13.2052 0.405304 13.9451C1.21839 21.6794 6.7106 46.5461 6.94413 47.6008C6.99617 47.8358 7.20046 48 7.4411 48H10.5213L8.68926 32.5863C7.81201 31.5916 7.34833 30.4731 7.34833 29.2913C7.34833 28.4632 7.57831 27.6667 8.01597 26.9215L6.1312 11.0647Z" fill="#637394"/>
<path d="M10.706 10.5826C10.0532 10.5826 9.42002 10.7342 8.85938 11.012L10.4633 24.5065C10.801 24.2891 11.1616 24.0809 11.5504 23.8854C12.1245 23.5967 12.7432 23.3399 13.3959 23.1146L12.6401 11.0547C12.0586 10.7483 11.3925 10.5826 10.706 10.5826Z" fill="#637394"/>
<path d="M13.2558 48H14.9557L14.186 35.7193C13.2889 35.456 12.4485 35.1352 11.6821 34.7602L13.2558 48Z" fill="#637394"/>
<path d="M4.17616 8.20687C5.3364 8.20687 6.46771 8.51103 7.44097 9.07491C8.41422 8.51103 9.54553 8.20687 10.7058 8.20687C11.8659 8.20687 12.9972 8.51103 13.9706 9.07507C14.9438 8.51103 16.0751 8.20687 17.2352 8.20687C18.3955 8.20687 19.5268 8.51103 20.5 9.07491C21.4733 8.51103 22.6046 8.20687 23.7648 8.20687C24.9249 8.20687 26.0562 8.51103 27.0295 9.07507C28.0029 8.51103 29.1342 8.20687 30.2943 8.20687C31.4545 8.20687 32.5859 8.51103 33.5591 9.07491C34.5324 8.51103 35.6637 8.20687 36.8239 8.20687C37.2325 8.20687 37.6381 8.24663 38.0356 8.31936C38.0323 8.31612 38.0289 8.31257 38.0259 8.30934C37.8059 8.08534 37.5787 7.85358 37.484 7.6973C37.4272 7.59677 37.3445 7.26045 37.2895 7.03806C37.0953 6.24954 36.8294 5.16978 35.8838 4.40323C35.1014 3.76873 34.1676 3.68065 33.4174 3.61002C33.1085 3.58109 32.6854 3.54101 32.5492 3.47265C32.4459 3.40671 32.2085 3.12533 32.0512 2.93899C31.5851 2.38691 30.9467 1.63119 29.9507 1.30214C29.039 1.00105 28.1655 1.19418 27.4634 1.34917C27.1863 1.41042 26.7669 1.50335 26.6432 1.48186C26.5219 1.44388 26.2117 1.22068 26.0065 1.07297C25.4096 0.643553 24.6668 0.109088 23.6714 0.0137345C22.7203 -0.0770938 21.9142 0.290745 21.2656 0.586664C21.0145 0.70125 20.6347 0.874341 20.5033 0.881614C20.3656 0.874503 19.9856 0.701089 19.7341 0.586664C19.0854 0.290745 18.2773 -0.076609 17.3282 0.0138962C16.3329 0.10925 15.59 0.643553 14.9931 1.07297C14.7879 1.22068 14.4776 1.44388 14.3716 1.47814C14.2313 1.50303 13.8135 1.41042 13.5362 1.34917C12.8343 1.19369 11.9607 1.00105 11.0494 1.30214C10.0535 1.63087 9.41511 2.38675 8.94884 2.93883C8.79159 3.12485 8.55402 3.40638 8.46416 3.46505C8.3145 3.54101 7.89155 3.58093 7.5827 3.60986C6.83248 3.68065 5.89899 3.76857 5.11693 4.40275C4.17099 5.16962 3.90497 6.24938 3.71086 7.03758C3.65608 7.26012 3.57317 7.59645 3.51741 7.69519C3.42141 7.85358 3.19418 8.08534 2.97438 8.30934C2.97131 8.31257 2.96791 8.31596 2.96484 8.31919C3.36193 8.24679 3.76759 8.20687 4.17616 8.20687Z" fill="#637394"/>
<path d="M27.7443 48L29.318 34.7602C28.5516 35.1352 27.7112 35.456 26.814 35.7191L26.0444 48H27.7443Z" fill="#637394"/>
<path d="M23.3241 48L24.056 36.3197C23.3411 36.426 22.606 36.5004 21.8574 36.5411V48H23.3241Z" fill="#637394"/>
<path d="M19.1425 48V36.5411C18.3939 36.5004 17.6588 36.426 16.9438 36.3197L17.676 48H19.1425Z" fill="#637394"/>
</svg>
