<svg width="22" height="15" viewBox="0 0 22 15" fill="none" xmlns="http://www.w3.org/2000/svg">
<path d="M0 3C0 1.89543 0.89543 1 2 1H2.4C3.50457 1 4.4 1.89543 4.4 3V8.8C4.4 9.90457 5.29543 10.8 6.4 10.8H15.6C16.7046 10.8 17.6 9.90457 17.6 8.8V3C17.6 1.89543 18.4954 1 19.6 1H20C21.1046 1 22 1.89543 22 3V10C22 12.7614 19.7614 15 17 15H5C2.23858 15 0 12.7614 0 10V3Z" fill="#253554"/>
<path d="M5 3C5 1.34315 6.34315 0 8 0H14C15.6569 0 17 1.34315 17 3V9C17 9.55228 16.5523 10 16 10H6C5.44772 10 5 9.55229 5 9V3Z" fill="#253554"/>
</svg>
