<svg width="892" height="40" viewBox="0 0 892 40" fill="none" xmlns="http://www.w3.org/2000/svg">
<path d="M20 20C20 31.0457 11.0457 40 0 40V0C11.0457 0 20 8.9543 20 20Z" fill="#1A2232"/>
<circle cx="44.8572" cy="20" r="6" fill="#1A2232"/>
<circle cx="75.7144" cy="20" r="6" fill="#1A2232"/>
<circle cx="106.572" cy="20" r="6" fill="#1A2232"/>
<circle cx="137.428" cy="20" r="6" fill="#1A2232"/>
<circle cx="168.286" cy="20" r="6" fill="#1A2232"/>
<circle cx="199.143" cy="20" r="6" fill="#1A2232"/>
<circle cx="230" cy="20" r="6" fill="#1A2232"/>
<circle cx="260.857" cy="20" r="6" fill="#1A2232"/>
<circle cx="291.714" cy="20" r="6" fill="#1A2232"/>
<circle cx="322.572" cy="20" r="6" fill="#1A2232"/>
<circle cx="353.429" cy="20" r="6" fill="#1A2232"/>
<circle cx="384.286" cy="20" r="6" fill="#1A2232"/>
<circle cx="415.143" cy="20" r="6" fill="#1A2232"/>
<circle cx="446" cy="20" r="6" fill="#1A2232"/>
<circle cx="476.857" cy="20" r="6" fill="#1A2232"/>
<circle cx="507.714" cy="20" r="6" fill="#1A2232"/>
<circle cx="538.572" cy="20" r="6" fill="#1A2232"/>
<circle cx="569.429" cy="20" r="6" fill="#1A2232"/>
<circle cx="600.286" cy="20" r="6" fill="#1A2232"/>
<circle cx="631.143" cy="20" r="6" fill="#1A2232"/>
<circle cx="662" cy="20" r="6" fill="#1A2232"/>
<circle cx="692.857" cy="20" r="6" fill="#1A2232"/>
<circle cx="723.714" cy="20" r="6" fill="#1A2232"/>
<circle cx="754.571" cy="20" r="6" fill="#1A2232"/>
<circle cx="785.428" cy="20" r="6" fill="#1A2232"/>
<circle cx="816.286" cy="20" r="6" fill="#1A2232"/>
<circle cx="847.143" cy="20" r="6" fill="#1A2232"/>
<path d="M872 20C872 8.9543 880.954 -9.65645e-07 892 0L892 40C880.954 40 872 31.0457 872 20Z" fill="#1A2232"/>
</svg>
